<svg width="100" height="100" viewBox="0 0 100 100" fill="none" xmlns="http://www.w3.org/2000/svg">
<mask id="mask0_1129_1980" style="mask-type:alpha" maskUnits="userSpaceOnUse" x="0" y="0" width="100" height="100">
<rect x="0.5" y="0.5" width="99" height="99" fill="#D9D9D9" stroke="black"/>
</mask>
<g mask="url(#mask0_1129_1980)">
<g clip-path="url(#clip0_1129_1980)">
<path d="M-6.20161 105.111C-5.51029 105.111 -4.94466 105.677 -4.94466 106.368C-4.94466 107.751 -6.07591 108.882 -7.45855 108.882C-7.67223 108.882 -7.87334 108.857 -8.08702 108.819C-7.69737 108.128 -7.45855 107.298 -7.45855 106.368C-7.45855 105.677 -6.89293 105.111 -6.20161 105.111ZM8.46694 88.7708C8.14013 88.7708 7.82589 88.8965 7.5745 89.1353L-3.68772 100.398L-0.23112 103.854L11.0311 92.5919C11.5213 92.1017 11.5213 91.3098 11.0311 90.8196L9.3468 89.1353C9.09541 88.8839 8.78117 88.7708 8.46694 88.7708V88.7708ZM-6.20161 102.597C-8.28813 102.597 -9.97244 104.282 -9.97244 106.368C-9.97244 108.015 -11.4305 108.882 -12.4863 108.882C-11.3299 110.415 -9.35654 111.396 -7.45855 111.396C-4.6807 111.396 -2.43077 109.146 -2.43077 106.368C-2.43077 104.282 -4.11508 102.597 -6.20161 102.597Z" fill="white" fill-opacity="0.3"/>
</g>
<g clip-path="url(#clip1_1129_1980)">
<path d="M93.7984 5.11109C94.4897 5.11109 95.0553 5.67671 95.0553 6.36803C95.0553 7.75067 93.9241 8.88192 92.5414 8.88192C92.3278 8.88192 92.1267 8.85678 91.913 8.81908C92.3026 8.12776 92.5414 7.29817 92.5414 6.36803C92.5414 5.67671 93.1071 5.11109 93.7984 5.11109ZM108.467 -11.2292C108.14 -11.2292 107.826 -11.1035 107.575 -10.8647L96.3123 0.397548L99.7689 3.85414L111.031 -7.40808C111.521 -7.89828 111.521 -8.69016 111.031 -9.18037L109.347 -10.8647C109.095 -11.1161 108.781 -11.2292 108.467 -11.2292V-11.2292ZM93.7984 2.5972C91.7119 2.5972 90.0276 4.28151 90.0276 6.36803C90.0276 8.01463 88.5695 8.88192 87.5137 8.88192C88.6701 10.4154 90.6435 11.3958 92.5414 11.3958C95.3193 11.3958 97.5692 9.14588 97.5692 6.36803C97.5692 4.28151 95.8849 2.5972 93.7984 2.5972Z" fill="white" fill-opacity="0.3"/>
</g>
<g clip-path="url(#clip2_1129_1980)">
<path d="M-11.2016 70.1111C-10.5103 70.1111 -9.94466 70.6767 -9.94466 71.368C-9.94466 72.7507 -11.0759 73.8819 -12.4586 73.8819C-12.6722 73.8819 -12.8733 73.8568 -13.087 73.8191C-12.6974 73.1278 -12.4586 72.2982 -12.4586 71.368C-12.4586 70.6767 -11.8929 70.1111 -11.2016 70.1111ZM3.46694 53.7708C3.14013 53.7708 2.82589 53.8965 2.5745 54.1353L-8.68772 65.3975L-5.23112 68.8541L6.0311 57.5919C6.52131 57.1017 6.52131 56.3098 6.0311 55.8196L4.3468 54.1353C4.09541 53.8839 3.78117 53.7708 3.46694 53.7708V53.7708ZM-11.2016 67.5972C-13.2881 67.5972 -14.9724 69.2815 -14.9724 71.368C-14.9724 73.0146 -16.4305 73.8819 -17.4863 73.8819C-16.3299 75.4154 -14.3565 76.3958 -12.4586 76.3958C-9.6807 76.3958 -7.43077 74.1459 -7.43077 71.368C-7.43077 69.2815 -9.11508 67.5972 -11.2016 67.5972Z" fill="white" fill-opacity="0.3"/>
</g>
<g clip-path="url(#clip3_1129_1980)">
<path d="M61.25 25C61.6625 25 62 25.3375 62 25.75C62 26.575 61.325 27.25 60.5 27.25C60.3725 27.25 60.2525 27.235 60.125 27.2125C60.3575 26.8 60.5 26.305 60.5 25.75C60.5 25.3375 60.8375 25 61.25 25ZM70.0025 15.25C69.8075 15.25 69.62 15.325 69.47 15.4675L62.75 22.1875L64.8125 24.25L71.5325 17.53C71.825 17.2375 71.825 16.765 71.5325 16.4725L70.5275 15.4675C70.3775 15.3175 70.19 15.25 70.0025 15.25V15.25ZM61.25 23.5C60.005 23.5 59 24.505 59 25.75C59 26.7325 58.13 27.25 57.5 27.25C58.19 28.165 59.3675 28.75 60.5 28.75C62.1575 28.75 63.5 27.4075 63.5 25.75C63.5 24.505 62.495 23.5 61.25 23.5Z" fill="white" fill-opacity="0.3"/>
</g>
<g clip-path="url(#clip4_1129_1980)">
<path d="M35.5 86C35.775 86 36 86.225 36 86.5C36 87.05 35.55 87.5 35 87.5C34.915 87.5 34.835 87.49 34.75 87.475C34.905 87.2 35 86.87 35 86.5C35 86.225 35.225 86 35.5 86ZM41.335 79.5C41.205 79.5 41.08 79.55 40.98 79.645L36.5 84.125L37.875 85.5L42.355 81.02C42.55 80.825 42.55 80.51 42.355 80.315L41.685 79.645C41.585 79.545 41.46 79.5 41.335 79.5V79.5ZM35.5 85C34.67 85 34 85.67 34 86.5C34 87.155 33.42 87.5 33 87.5C33.46 88.11 34.245 88.5 35 88.5C36.105 88.5 37 87.605 37 86.5C37 85.67 36.33 85 35.5 85Z" fill="white" fill-opacity="0.3"/>
</g>
<g clip-path="url(#clip5_1129_1980)">
<path d="M9.5 74C9.775 74 10 74.225 10 74.5C10 75.05 9.55 75.5 9 75.5C8.915 75.5 8.835 75.49 8.75 75.475C8.905 75.2 9 74.87 9 74.5C9 74.225 9.225 74 9.5 74ZM15.335 67.5C15.205 67.5 15.08 67.55 14.98 67.645L10.5 72.125L11.875 73.5L16.355 69.02C16.55 68.825 16.55 68.51 16.355 68.315L15.685 67.645C15.585 67.545 15.46 67.5 15.335 67.5V67.5ZM9.5 73C8.67 73 8 73.67 8 74.5C8 75.155 7.42 75.5 7 75.5C7.46 76.11 8.245 76.5 9 76.5C10.105 76.5 11 75.605 11 74.5C11 73.67 10.33 73 9.5 73Z" fill="white" fill-opacity="0.3"/>
</g>
<g clip-path="url(#clip6_1129_1980)">
<path d="M12.5 38C12.775 38 13 38.225 13 38.5C13 39.05 12.55 39.5 12 39.5C11.915 39.5 11.835 39.49 11.75 39.475C11.905 39.2 12 38.87 12 38.5C12 38.225 12.225 38 12.5 38ZM18.335 31.5C18.205 31.5 18.08 31.55 17.98 31.645L13.5 36.125L14.875 37.5L19.355 33.02C19.55 32.825 19.55 32.51 19.355 32.315L18.685 31.645C18.585 31.545 18.46 31.5 18.335 31.5V31.5ZM12.5 37C11.67 37 11 37.67 11 38.5C11 39.155 10.42 39.5 10 39.5C10.46 40.11 11.245 40.5 12 40.5C13.105 40.5 14 39.605 14 38.5C14 37.67 13.33 37 12.5 37Z" fill="white" fill-opacity="0.3"/>
</g>
<g clip-path="url(#clip7_1129_1980)">
<path d="M31.25 41C31.6625 41 32 41.3375 32 41.75C32 42.575 31.325 43.25 30.5 43.25C30.3725 43.25 30.2525 43.235 30.125 43.2125C30.3575 42.8 30.5 42.305 30.5 41.75C30.5 41.3375 30.8375 41 31.25 41ZM40.0025 31.25C39.8075 31.25 39.62 31.325 39.47 31.4675L32.75 38.1875L34.8125 40.25L41.5325 33.53C41.825 33.2375 41.825 32.765 41.5325 32.4725L40.5275 31.4675C40.3775 31.3175 40.19 31.25 40.0025 31.25V31.25ZM31.25 39.5C30.005 39.5 29 40.505 29 41.75C29 42.7325 28.13 43.25 27.5 43.25C28.19 44.165 29.3675 44.75 30.5 44.75C32.1575 44.75 33.5 43.4075 33.5 41.75C33.5 40.505 32.495 39.5 31.25 39.5Z" fill="white" fill-opacity="0.3"/>
</g>
<g clip-path="url(#clip8_1129_1980)">
<path d="M72.25 98C72.6625 98 73 98.3375 73 98.75C73 99.575 72.325 100.25 71.5 100.25C71.3725 100.25 71.2525 100.235 71.125 100.213C71.3575 99.8 71.5 99.305 71.5 98.75C71.5 98.3375 71.8375 98 72.25 98ZM81.0025 88.25C80.8075 88.25 80.62 88.325 80.47 88.4675L73.75 95.1875L75.8125 97.25L82.5325 90.53C82.825 90.2375 82.825 89.765 82.5325 89.4725L81.5275 88.4675C81.3775 88.3175 81.19 88.25 81.0025 88.25V88.25ZM72.25 96.5C71.005 96.5 70 97.505 70 98.75C70 99.7325 69.13 100.25 68.5 100.25C69.19 101.165 70.3675 101.75 71.5 101.75C73.1575 101.75 74.5 100.408 74.5 98.75C74.5 97.505 73.495 96.5 72.25 96.5Z" fill="white" fill-opacity="0.3"/>
</g>
<g clip-path="url(#clip9_1129_1980)">
<path d="M72.25 -1C72.6625 -1 73 -0.6625 73 -0.25C73 0.575 72.325 1.25 71.5 1.25C71.3725 1.25 71.2525 1.235 71.125 1.2125C71.3575 0.800001 71.5 0.305 71.5 -0.25C71.5 -0.6625 71.8375 -1 72.25 -1ZM81.0025 -10.75C80.8075 -10.75 80.62 -10.675 80.47 -10.5325L73.75 -3.8125L75.8125 -1.75L82.5325 -8.47C82.825 -8.7625 82.825 -9.235 82.5325 -9.5275L81.5275 -10.5325C81.3775 -10.6825 81.19 -10.75 81.0025 -10.75V-10.75ZM72.25 -2.5C71.005 -2.5 70 -1.495 70 -0.25C70 0.7325 69.13 1.25 68.5 1.25C69.19 2.165 70.3675 2.75 71.5 2.75C73.1575 2.75 74.5 1.4075 74.5 -0.25C74.5 -1.495 73.495 -2.5 72.25 -2.5Z" fill="white" fill-opacity="0.3"/>
</g>
<g clip-path="url(#clip10_1129_1980)">
<path d="M9.25 14C9.6625 14 10 14.3375 10 14.75C10 15.575 9.325 16.25 8.5 16.25C8.3725 16.25 8.2525 16.235 8.125 16.2125C8.3575 15.8 8.5 15.305 8.5 14.75C8.5 14.3375 8.8375 14 9.25 14ZM18.0025 4.25C17.8075 4.25 17.62 4.325 17.47 4.4675L10.75 11.1875L12.8125 13.25L19.5325 6.53C19.825 6.2375 19.825 5.765 19.5325 5.4725L18.5275 4.4675C18.3775 4.3175 18.19 4.25 18.0025 4.25V4.25ZM9.25 12.5C8.005 12.5 7 13.505 7 14.75C7 15.7325 6.13 16.25 5.5 16.25C6.19 17.165 7.3675 17.75 8.5 17.75C10.1575 17.75 11.5 16.4075 11.5 14.75C11.5 13.505 10.495 12.5 9.25 12.5Z" fill="white" fill-opacity="0.3"/>
</g>
<g clip-path="url(#clip11_1129_1980)">
<path d="M85.5 40C85.775 40 86 40.225 86 40.5C86 41.05 85.55 41.5 85 41.5C84.915 41.5 84.835 41.49 84.75 41.475C84.905 41.2 85 40.87 85 40.5C85 40.225 85.225 40 85.5 40ZM91.335 33.5C91.205 33.5 91.08 33.55 90.98 33.645L86.5 38.125L87.875 39.5L92.355 35.02C92.55 34.825 92.55 34.51 92.355 34.315L91.685 33.645C91.585 33.545 91.46 33.5 91.335 33.5V33.5ZM85.5 39C84.67 39 84 39.67 84 40.5C84 41.155 83.42 41.5 83 41.5C83.46 42.11 84.245 42.5 85 42.5C86.105 42.5 87 41.605 87 40.5C87 39.67 86.33 39 85.5 39Z" fill="white" fill-opacity="0.3"/>
</g>
<g clip-path="url(#clip12_1129_1980)">
<path d="M85.7984 70.1111C86.4897 70.1111 87.0553 70.6767 87.0553 71.368C87.0553 72.7507 85.9241 73.8819 84.5414 73.8819C84.3278 73.8819 84.1267 73.8568 83.913 73.8191C84.3026 73.1278 84.5414 72.2982 84.5414 71.368C84.5414 70.6767 85.1071 70.1111 85.7984 70.1111ZM100.467 53.7708C100.14 53.7708 99.8259 53.8965 99.5745 54.1353L88.3123 65.3975L91.7689 68.8541L103.031 57.5919C103.521 57.1017 103.521 56.3098 103.031 55.8196L101.347 54.1353C101.095 53.8839 100.781 53.7708 100.467 53.7708V53.7708ZM85.7984 67.5972C83.7119 67.5972 82.0276 69.2815 82.0276 71.368C82.0276 73.0146 80.5695 73.8819 79.5137 73.8819C80.6701 75.4154 82.6435 76.3958 84.5414 76.3958C87.3193 76.3958 89.5692 74.1459 89.5692 71.368C89.5692 69.2815 87.8849 67.5972 85.7984 67.5972Z" fill="white" fill-opacity="0.3"/>
</g>
<g clip-path="url(#clip13_1129_1980)">
<path d="M49.7984 62.1111C50.4897 62.1111 51.0553 62.6767 51.0553 63.368C51.0553 64.7507 49.9241 65.8819 48.5414 65.8819C48.3278 65.8819 48.1267 65.8568 47.913 65.8191C48.3026 65.1278 48.5414 64.2982 48.5414 63.368C48.5414 62.6767 49.1071 62.1111 49.7984 62.1111ZM64.4669 45.7708C64.1401 45.7708 63.8259 45.8965 63.5745 46.1353L52.3123 57.3975L55.7689 60.8541L67.0311 49.5919C67.5213 49.1017 67.5213 48.3098 67.0311 47.8196L65.3468 46.1353C65.0954 45.8839 64.7812 45.7708 64.4669 45.7708V45.7708ZM49.7984 59.5972C47.7119 59.5972 46.0276 61.2815 46.0276 63.368C46.0276 65.0146 44.5695 65.8819 43.5137 65.8819C44.6701 67.4154 46.6435 68.3958 48.5414 68.3958C51.3193 68.3958 53.5692 66.1459 53.5692 63.368C53.5692 61.2815 51.8849 59.5972 49.7984 59.5972Z" fill="white" fill-opacity="0.3"/>
</g>
<g clip-path="url(#clip14_1129_1980)">
<path d="M34.7984 12.1111C35.4897 12.1111 36.0553 12.6767 36.0553 13.368C36.0553 14.7507 34.9241 15.8819 33.5414 15.8819C33.3278 15.8819 33.1267 15.8568 32.913 15.8191C33.3026 15.1278 33.5414 14.2982 33.5414 13.368C33.5414 12.6767 34.1071 12.1111 34.7984 12.1111ZM49.4669 -4.22919C49.1401 -4.22919 48.8259 -4.10349 48.5745 -3.86467L37.3123 7.39755L40.7689 10.8541L52.0311 -0.408076C52.5213 -0.898285 52.5213 -1.69016 52.0311 -2.18037L50.3468 -3.86467C50.0954 -4.11606 49.7812 -4.22919 49.4669 -4.22919V-4.22919ZM34.7984 9.5972C32.7119 9.5972 31.0276 11.2815 31.0276 13.368C31.0276 15.0146 29.5695 15.8819 28.5137 15.8819C29.6701 17.4154 31.6435 18.3958 33.5414 18.3958C36.3193 18.3958 38.5692 16.1459 38.5692 13.368C38.5692 11.2815 36.8849 9.5972 34.7984 9.5972Z" fill="white" fill-opacity="0.3"/>
</g>
<g clip-path="url(#clip15_1129_1980)">
<path d="M34.7984 111.111C35.4897 111.111 36.0553 111.677 36.0553 112.368C36.0553 113.751 34.9241 114.882 33.5414 114.882C33.3278 114.882 33.1267 114.857 32.913 114.819C33.3026 114.128 33.5414 113.298 33.5414 112.368C33.5414 111.677 34.1071 111.111 34.7984 111.111ZM49.4669 94.7708C49.1401 94.7708 48.8259 94.8965 48.5745 95.1353L37.3123 106.398L40.7689 109.854L52.0311 98.5919C52.5213 98.1017 52.5213 97.3098 52.0311 96.8196L50.3468 95.1353C50.0954 94.8839 49.7812 94.7708 49.4669 94.7708V94.7708ZM34.7984 108.597C32.7119 108.597 31.0276 110.282 31.0276 112.368C31.0276 114.015 29.5695 114.882 28.5137 114.882C29.6701 116.415 31.6435 117.396 33.5414 117.396C36.3193 117.396 38.5692 115.146 38.5692 112.368C38.5692 110.282 36.8849 108.597 34.7984 108.597Z" fill="white" fill-opacity="0.3"/>
</g>
</g>
<defs>
<clipPath id="clip0_1129_1980">
<rect width="30.1667" height="30.1667" fill="white" transform="translate(-15 85)"/>
</clipPath>
<clipPath id="clip1_1129_1980">
<rect width="30.1667" height="30.1667" fill="white" transform="translate(85 -15)"/>
</clipPath>
<clipPath id="clip2_1129_1980">
<rect width="30.1667" height="30.1667" fill="white" transform="translate(-20 50)"/>
</clipPath>
<clipPath id="clip3_1129_1980">
<rect width="18" height="18" fill="white" transform="translate(56 13)"/>
</clipPath>
<clipPath id="clip4_1129_1980">
<rect width="12" height="12" fill="white" transform="translate(32 78)"/>
</clipPath>
<clipPath id="clip5_1129_1980">
<rect width="12" height="12" fill="white" transform="translate(6 66)"/>
</clipPath>
<clipPath id="clip6_1129_1980">
<rect width="12" height="12" fill="white" transform="translate(9 30)"/>
</clipPath>
<clipPath id="clip7_1129_1980">
<rect width="18" height="18" fill="white" transform="translate(26 29)"/>
</clipPath>
<clipPath id="clip8_1129_1980">
<rect width="18" height="18" fill="white" transform="translate(67 86)"/>
</clipPath>
<clipPath id="clip9_1129_1980">
<rect width="18" height="18" fill="white" transform="translate(67 -13)"/>
</clipPath>
<clipPath id="clip10_1129_1980">
<rect width="18" height="18" fill="white" transform="translate(4 2)"/>
</clipPath>
<clipPath id="clip11_1129_1980">
<rect width="12" height="12" fill="white" transform="translate(82 32)"/>
</clipPath>
<clipPath id="clip12_1129_1980">
<rect width="30.1667" height="30.1667" fill="white" transform="translate(77 50)"/>
</clipPath>
<clipPath id="clip13_1129_1980">
<rect width="30.1667" height="30.1667" fill="white" transform="translate(41 42)"/>
</clipPath>
<clipPath id="clip14_1129_1980">
<rect width="30.1667" height="30.1667" fill="white" transform="translate(26 -8)"/>
</clipPath>
<clipPath id="clip15_1129_1980">
<rect width="30.1667" height="30.1667" fill="white" transform="translate(26 91)"/>
</clipPath>
</defs>
</svg>
