<svg width="111" height="150" viewBox="0 0 111 150" fill="none" xmlns="http://www.w3.org/2000/svg">
<path fill-rule="evenodd" clip-rule="evenodd" d="M52.7966 62.5144C55.1956 60.687 61.2183 59.8652 63.7787 61.6248C66.3076 63.3918 66.5833 66.2492 67.7617 68.8779C68.8736 68.3534 70.7097 69.1046 71.0321 70.1367C71.4319 70.6235 71.4498 71.9911 71.7256 72.6455C83.722 74.5558 85.5433 83.9122 86.9873 94.5344C88.8975 105.313 93.2339 116.069 91.3514 127.16C91.5967 127.515 91.7901 127.86 91.9689 128.27C92.3974 129 91.8455 130.032 90.9812 129.992C89.8625 129.894 88.7549 129.759 87.631 129.718C84.5153 129.609 81.3968 129.622 78.28 129.662L77.855 129.667C62.147 129.863 46.4399 130.249 30.7312 130.351C30.1613 130.352 29.8823 129.84 29.9584 129.336C30.1116 128.32 30.2538 127.304 30.4022 126.288C26.6867 127.27 22.7368 127.517 19.0318 126.392C18.7726 126.128 19.6357 126.271 19.7726 126.231C16.3628 123.9 17.3811 118.989 17.6832 115.453C19.5613 103.334 20.2234 89.9255 27.48 79.5843C30.6193 75.3642 35.2218 72.0229 40.5104 71.2711L40.6571 71.251C42.2035 71.0447 43.927 70.9782 45.279 70.1367C46.7996 68.9223 47.4476 66.6783 49.0474 66.6573C49.5757 66.6504 50.2943 67.3189 51.0676 67.7728C51.1253 66.7743 51.6632 65.9317 51.782 65.1575L51.7916 65.0912C51.9156 64.1886 51.7458 63.3766 52.7966 62.5144ZM78.5782 94.8542C75.2068 92.5112 66.498 93.6884 66.2986 93.8196C65.8596 94.1085 65.6706 94.134 65.4332 94.5091C65.1988 94.5402 64.9646 94.5725 64.7305 94.6057C64.261 94.7592 64.609 95.3368 65.1512 95.1307C64.8251 96.5379 65.785 97.5387 66.1671 98.9299C66.2912 99.3816 66.1716 100.194 66.1671 100.656C66.2042 101.244 66.8545 101.939 66.7461 102.529C66.3608 104.628 64.2696 106.676 65.1512 108.711C65.7353 109.861 67.492 110.447 68.6599 110.838C71.0797 111.767 75.2959 110.803 76.7019 108.711C77.4518 107.596 78.3206 104.781 78.7677 103.908L78.8668 102.524C79.1112 99.0813 79.3286 95.3757 78.5782 94.8542Z" fill="white"/>
<path fill-rule="evenodd" clip-rule="evenodd" d="M48.4597 66.4523C48.6924 66.2461 49.0368 66.5052 48.8889 66.7837C48.5566 67.4097 48.2156 68.0029 47.7696 68.5562C47.4991 68.8917 47.2094 69.2091 46.9158 69.5229C47.6693 70.175 48.3155 70.9845 48.9257 71.7432C49.706 72.7136 50.4437 73.7251 51.3196 74.613C52.1834 75.4887 53.1386 76.1008 54.2935 76.509L54.5267 76.5901C55.6869 76.9975 56.9269 77.5478 57.5809 78.6467C57.7099 78.8634 57.4502 79.1312 57.2319 78.9959C56.0955 78.2921 54.7603 78.1505 53.5234 77.6854C52.3285 77.2361 51.2869 76.5447 50.3666 75.6622C49.4478 74.7812 48.6764 73.7789 47.8717 72.7977C47.076 71.8275 46.2192 70.9989 45.278 70.1781C43.8255 71.1556 42.1676 71.5809 40.4818 71.9987L40.2978 72.0442C38.6099 72.4623 36.931 72.9478 35.3475 73.6758C33.9514 74.3176 32.5782 75.084 31.441 76.1283C30.2338 77.2366 29.2942 78.6522 28.4342 80.0365C26.5106 83.1336 25.1582 86.5266 23.9676 89.9608C22.7293 93.5329 21.6935 97.1766 20.8573 100.863C20.4321 102.739 20.0867 104.628 19.8028 106.53C19.6662 107.446 19.5448 108.364 19.4382 109.284C19.3244 110.266 19.2982 111.277 18.997 112.221C18.8678 112.626 18.5628 112.794 18.2576 112.78L18.1956 113.555C18.1134 114.59 18.0367 115.624 18.0108 116.665C17.9679 118.395 17.9874 120.121 18.1118 121.847L18.1294 122.083C18.2272 123.343 18.4456 124.759 19.3929 125.682C20.3739 126.637 21.8824 126.938 23.2046 126.955C26.284 126.995 29.2483 125.54 31.9733 124.263C34.7798 122.947 37.5096 121.488 40.1739 119.905C41.5308 119.098 42.873 118.265 44.1981 117.408C44.8484 116.987 45.494 116.559 46.1349 116.124C46.5019 115.875 46.8497 115.602 47.2234 115.381C47.0403 115.21 46.9586 114.942 47.1119 114.708C46.0317 113.77 45.5822 112.096 45.5296 110.742C45.4871 109.649 45.648 108.559 45.7749 107.476C45.8389 106.93 45.918 106.384 46.0002 105.841C46.0326 105.626 46.0574 105.396 46.0953 105.17C43.1786 106.773 40.1801 108.201 37.1022 109.47C35.5245 110.12 33.9266 110.705 32.3067 111.24L31.9783 111.348C30.4434 111.851 28.8718 112.326 27.285 112.613C27.2002 112.629 27.1313 112.503 27.2219 112.463C28.7682 111.781 30.3682 111.205 31.9378 110.576L32.1957 110.471V110.471C32.1661 110.47 32.1353 110.466 32.1033 110.458C31.1828 110.236 30.2694 109.893 29.3666 109.605C28.5287 109.337 27.5873 109.169 26.8041 108.765C26.7438 108.734 26.7775 108.65 26.8362 108.646C27.7165 108.585 28.6721 108.842 29.5352 108.993L29.8594 109.049C30.4026 109.145 30.9578 109.248 31.4983 109.383C31.5178 109.201 31.619 109.02 31.7629 108.913C33.3467 107.74 33.1859 105.37 33.3553 103.622L33.4809 102.325C33.7018 100.054 33.9356 97.7838 34.2907 95.5301C34.3096 95.4098 34.4957 95.4443 34.4965 95.5579C34.5148 98.3516 34.304 101.132 34.1984 103.922L34.182 104.379C34.1236 106.1 34.0778 107.887 32.9942 109.212C33.1458 109.123 33.3506 109.123 33.4734 109.269C33.6242 109.449 33.7113 109.65 33.7085 109.848C34.6877 109.438 35.6625 109.016 36.6326 108.586C39.7515 107.204 42.805 105.657 45.7777 103.983C46.0976 103.803 46.4017 103.945 46.5599 104.182L46.5828 104.179C46.5866 104.178 46.5905 104.178 46.5944 104.178L46.6171 104.177C46.618 104.177 46.6188 104.177 46.6196 104.177C47.0381 103.947 47.6082 104.111 47.9672 104.446C47.9778 104.456 47.9869 104.467 47.9963 104.478C48.4509 104.274 48.8754 103.998 49.2607 103.649C50.049 102.934 50.7168 102.05 51.2989 101.164C52.3709 99.5318 53.2815 97.7165 54.7296 96.3729C55.9062 95.2812 57.365 94.6015 58.8953 94.1748C58.8889 94.1301 58.906 94.0824 58.9369 94.0507C59.0155 93.9701 59.0716 93.9422 59.1731 93.9911C59.1812 93.9951 59.1861 94.0006 59.1894 94.0064L59.3387 93.7511C59.4202 93.6126 59.5039 93.4731 59.5329 93.4365C59.7067 93.2176 59.8855 93.0004 60.067 92.7878C60.3748 92.4278 60.7255 92.0726 61.1317 91.8229C62.0209 91.2764 62.9557 91.5857 63.8699 91.8843C64.4223 92.0649 64.9728 92.2513 65.5243 92.4345L65.5811 92.4531C65.9923 92.5853 66.4734 92.7009 66.6573 93.1367C66.7301 93.3091 66.7414 93.4881 66.7075 93.6617C70.6127 92.6682 74.9501 93.1247 78.761 94.291C78.9072 94.3357 79.0533 94.456 79.0841 94.6141C79.5208 96.8542 79.7152 99.1514 79.5176 101.43C79.3472 103.396 78.9116 105.324 78.0908 107.124L78.0441 107.226C77.2727 108.894 76.0501 110.951 74.183 111.474C73.0556 111.79 71.8086 111.604 70.6587 111.546C69.5412 111.489 68.3989 111.481 67.292 111.306C66.3062 111.149 65.4424 110.707 64.8332 109.905C64.3076 109.213 64.0308 108.377 63.8041 107.545C63.7003 107.578 63.5972 107.614 63.4957 107.653C63.0675 107.821 62.7046 108.091 62.3765 108.409C61.6837 109.08 61.1462 109.895 60.4214 110.535C59.7652 111.115 59.0175 111.566 58.2154 111.913C56.5534 112.631 54.7705 112.918 53.0126 113.299L52.89 113.326C51.5665 113.616 50.2157 113.973 49.0475 114.662C49.0247 114.865 48.9323 115.056 48.7842 115.181C48.9902 115.375 49.0775 115.681 48.8964 115.969C48.3907 116.772 47.5196 117.229 46.7375 117.742L46.6867 117.776C45.9174 118.286 45.1414 118.786 44.359 119.276C42.7686 120.272 41.145 121.213 39.4984 122.113C36.8501 123.56 34.1449 124.926 31.3907 126.164C31.556 126.978 31.4956 127.817 31.6199 128.636L31.6389 128.753C31.692 129.056 31.6203 129.311 31.411 129.509L31.3889 129.53L31.3893 129.527L31.3696 129.545L31.3631 129.55L31.3653 129.549C31.3411 129.571 31.3162 129.591 31.2909 129.609L31.2586 129.63V129.63C31.057 129.752 30.7975 129.751 30.5911 129.643L30.5675 129.63L30.5278 129.607C30.2551 129.45 30.0671 129.061 30.1802 128.753C30.4583 127.993 30.5633 127.183 30.8201 126.419L30.6164 126.51V126.51L30.3479 126.627C27.4443 127.883 24.2189 128.941 21.0552 128.085C19.6573 127.706 18.3508 126.906 17.6514 125.601C16.9631 124.317 16.8658 122.826 16.8293 121.398C16.7842 119.635 16.8787 117.846 17.111 116.098C17.267 114.925 17.4556 113.73 17.7466 112.569C17.5969 112.437 17.4869 112.247 17.4579 112.013C17.3206 110.904 17.5609 109.751 17.708 108.648C17.8518 107.571 18.0106 106.496 18.1901 105.425C18.5527 103.261 18.974 101.101 19.4645 98.9624C20.3374 95.1561 21.4901 91.4175 22.8779 87.7682L22.9994 87.4503C24.2818 84.1148 25.7666 80.8503 27.8341 77.9201C28.8231 76.5182 29.8686 75.2471 31.2661 74.2369C32.5754 73.2903 34.0522 72.6088 35.5762 72.0879C37.1019 71.5666 38.67 71.2173 40.2659 71C41.8866 70.7793 43.5973 70.644 45.1092 69.979C44.9179 69.636 45.0821 69.1729 45.4039 68.9602C46.4871 68.2443 47.4888 67.3129 48.4597 66.4523ZM83.1352 97.5852C83.1806 97.5163 83.2884 97.5598 83.2685 97.6414C82.7416 99.8006 82.2471 101.964 81.9241 104.165C81.3412 108.136 81.4484 112.159 81.4961 116.16L81.4985 116.367C81.523 118.522 81.557 120.677 81.6282 122.831C81.6642 123.92 81.7353 125.019 81.6966 126.109C81.6755 126.7 81.5181 127.259 81.4623 127.842C81.4134 128.353 81.457 128.871 81.4814 129.382C81.4977 129.722 80.9962 129.708 80.9621 129.382L80.9185 128.962C80.8618 128.429 80.7918 127.9 80.6173 127.39C80.4075 126.777 80.3068 126.174 80.234 125.531C80.1225 124.544 80.0729 123.548 80.0299 122.554L80.0005 121.867C79.8208 117.715 79.8271 113.544 80.118 109.397L80.1393 109.1C80.4273 105.18 80.9271 100.944 83.1352 97.5852ZM71.905 72.8763C71.7674 72.8197 71.8156 72.6115 71.968 72.6478L72.2451 72.7139C74.2757 73.2005 76.2695 73.7277 78.1648 74.6331C80.0613 75.539 81.667 76.8914 82.9428 78.5545C85.4229 81.7872 86.4535 85.7159 87.2672 89.6409C88.1713 94.0023 88.9946 98.3797 89.9067 102.74L90.076 103.552C90.92 107.613 91.7168 111.676 92.3039 115.785L92.346 116.083C92.9381 120.308 93.2942 124.68 92.6482 128.916C92.5204 129.755 91.1262 129.546 91.1807 128.718C91.3382 126.324 91.4509 123.943 91.3419 121.543C91.2329 119.144 91.0079 116.755 90.6725 114.376C90.3903 112.374 89.9696 110.397 89.5973 108.411L89.5389 108.098C89.2271 106.408 88.9057 104.721 88.585 103.034L88.1058 100.507C87.3875 96.7238 86.6552 92.9373 85.8277 89.1779L85.7786 88.9567C84.9688 85.3399 83.7749 81.5512 81.3458 78.6791C78.8807 75.7643 75.3519 74.2964 71.905 72.8763ZM62.9482 111.24C63.0075 111.108 63.2149 111.122 63.2786 111.24C63.5284 111.701 63.5562 112.289 63.6034 112.81L63.6083 112.864C63.6684 113.499 63.7216 114.136 63.7541 114.773C63.8158 115.983 63.8454 117.19 63.8416 118.401C63.8377 119.642 63.8127 120.882 63.7459 122.121L63.7277 122.453C63.6667 123.529 63.5643 124.731 63.0528 125.672C62.8669 126.014 62.3613 125.914 62.2536 125.567C61.9008 124.434 62.082 123.091 62.1725 121.93L62.2427 121.024C62.3123 120.119 62.3786 119.213 62.4313 118.306C62.5034 117.065 62.5629 115.823 62.6201 114.582C62.6387 114.179 62.6588 113.776 62.68 113.373L62.7127 112.768C62.7406 112.262 62.7383 111.707 62.9482 111.24ZM23.2832 112.846L23.4393 112.695C23.9187 112.226 24.5246 111.503 25.2333 111.548C25.5159 111.566 25.696 111.801 25.6374 112.079C25.5122 112.673 24.9059 112.982 24.4694 113.345C23.9913 113.742 23.5406 114.167 23.0909 114.596C22.6918 114.977 22.3081 115.368 21.9336 115.772L21.7936 115.923C21.6593 116.07 20.7033 116.935 20.8067 117.159L20.8123 117.169C20.8411 117.212 20.7932 117.272 20.7454 117.256C20.3326 117.126 20.3584 116.772 20.5144 116.413C20.8143 115.724 21.3395 115.087 21.7981 114.498C22.2555 113.911 22.7505 113.365 23.2832 112.846V112.846ZM64.4442 95.5645C64.1249 94.8097 62.9489 94.8255 62.2813 94.8707C60.6 94.9843 58.7809 95.4098 57.285 96.196C55.7341 97.011 54.6894 98.3168 53.7546 99.7608L53.7109 99.8286C52.7998 101.245 51.9223 102.923 50.4957 103.897C49.769 104.393 48.9205 104.846 48.0389 105.043C47.9783 105.149 47.8803 105.233 47.7517 105.264L47.6919 105.278C47.4408 105.333 47.0507 105.394 46.7138 105.358C46.716 105.523 46.7143 105.686 46.7184 105.842C46.7303 106.29 46.7354 106.74 46.7354 107.188C46.7356 108.126 46.6851 109.067 46.7243 110.006C46.759 110.836 46.8762 111.703 47.2746 112.445C47.5669 112.99 47.9526 113.35 48.4182 113.694C49.5636 112.996 50.8587 112.57 52.1732 112.25C53.763 111.863 55.3907 111.605 56.9442 111.08C57.692 110.827 58.4108 110.496 59.0622 110.047C59.7534 109.57 60.2814 108.925 60.8247 108.294L60.9096 108.196C61.464 107.56 62.069 106.951 62.8525 106.607C63.5272 106.309 64.4166 106.257 65.0066 105.797C65.315 105.556 65.3409 105.207 65.3733 104.85C64.9955 104.904 64.5955 104.817 64.2189 104.773L64.0238 104.75C63.6677 104.708 63.3198 104.662 62.9692 104.571C62.9041 104.554 62.9041 104.456 62.9692 104.439C63.3835 104.332 63.7941 104.286 64.2189 104.237L64.3187 104.224C64.703 104.174 65.1069 104.098 65.4838 104.182C65.5515 103.925 65.6491 103.679 65.7862 103.433C65.9785 103.087 66.3424 102.695 66.3916 102.291C66.4063 102.17 66.3782 102.028 66.3213 101.922L66.3018 101.885C66.2779 101.842 66.2496 101.799 66.2081 101.772C66.2036 101.778 66.1938 101.784 66.1728 101.79C65.8827 101.882 65.6296 101.74 65.4953 101.521C64.9251 101.592 64.3029 101.568 63.7682 101.591L63.2275 101.618C62.6499 101.644 62.0459 101.656 61.5031 101.539C61.4273 101.523 61.4044 101.396 61.4803 101.364C62.1476 101.078 62.9572 100.987 63.6717 100.878C64.0707 100.816 64.4726 100.77 64.8728 100.716C65.1393 100.68 65.4221 100.62 65.6982 100.606C66.3904 99.744 66.0175 98.384 65.0541 98.0128C64.7032 98.1671 64.3876 98.0774 64.0042 98.0444C63.6215 98.0116 63.2378 97.9893 62.8536 97.991C62.0836 97.9944 61.2676 98.197 60.5051 98.1098C60.3811 98.0955 60.2659 97.9304 60.3892 97.8297C60.9729 97.3532 61.8094 97.1978 62.5502 97.0963L62.7038 97.0757C62.9522 97.0432 63.2542 96.9956 63.5676 96.9673C63.6384 96.8291 63.7655 96.7246 63.9565 96.6986C64.0132 96.6908 64.0703 96.6863 64.1272 96.6814L64.1264 96.6758V96.6758C64.5921 96.6534 64.5719 95.8665 64.4442 95.5645ZM32.5615 110.286C32.5532 110.298 32.5442 110.31 32.5347 110.322L32.5199 110.339L32.5965 110.308L32.5615 110.286V110.286ZM72.5705 93.8775C70.6103 93.6669 68.6473 93.7113 66.6813 93.7679C66.5241 94.2824 65.9767 94.7208 65.4464 94.7374C65.8618 95.3698 65.9046 96.2257 65.6134 96.8965C66.2318 97.1427 66.7645 97.5851 67.0879 98.2151C67.5364 99.0884 67.4777 100.06 67.0345 100.867C67.4128 101.21 67.6361 101.766 67.6137 102.291C67.5887 102.876 67.2403 103.375 66.9508 103.859C66.638 104.383 66.6275 104.844 66.5314 105.43C66.3907 106.289 65.8121 106.809 65.0676 107.134L65.1072 107.29C65.2991 108.037 65.5379 108.826 66.0866 109.373C66.7923 110.076 67.8871 110.069 68.8196 110.114L68.8645 110.116C69.7184 110.159 70.5718 110.209 71.4253 110.257L72.0655 110.293C73.0482 110.347 73.9919 110.354 74.7942 109.704C76.1039 108.643 77.0018 106.887 77.5701 105.333C78.7629 102.07 78.7772 98.4902 78.2297 95.0925C76.3934 94.5004 74.4881 94.0837 72.5705 93.8775ZM56.2693 99.2904L56.2837 99.2914C56.6873 99.3375 56.9646 99.6644 57.0633 100.052C57.2067 100.616 57.1364 101.126 57.4815 101.634C57.8365 102.158 58.0548 102.577 58.1064 103.223C58.1275 103.489 58.1178 103.754 58.177 104.015L58.2199 104.197C58.2655 104.392 58.3028 104.579 58.2801 104.788C58.2594 104.978 58.1667 105.127 57.9757 105.188C57.3535 105.387 56.873 104.928 56.7123 104.348C56.5734 103.847 56.7588 103.25 56.5629 102.779C56.4543 102.518 56.2541 102.3 56.141 102.038C56.029 101.777 55.9727 101.505 55.9547 101.223C55.9206 100.687 56.3937 100.044 56.1297 99.5596C56.0735 99.4562 56.1372 99.2872 56.2693 99.2904ZM48.0038 93.7678C48.4251 93.6821 48.9032 93.4859 49.3187 93.649C49.5324 93.733 49.6379 93.9935 49.4574 94.1747C49.1441 94.4889 48.6887 94.5064 48.2667 94.5805L48.2295 94.5872C47.7305 94.6795 47.2306 94.7671 46.73 94.8502C45.7882 95.0062 44.8441 95.1442 43.8968 95.2614C42.9238 95.3819 41.9481 95.4891 40.971 95.5698L40.5927 95.6008C39.7674 95.6669 38.9086 95.7167 38.0988 95.5902C37.9811 95.5718 38 95.4004 38.0988 95.3704C38.9859 95.1018 39.9591 95.0297 40.8763 94.9161C41.8515 94.795 42.825 94.6672 43.7959 94.5155C44.7653 94.3641 45.7335 94.2015 46.698 94.0218C47.134 93.9408 47.5693 93.8561 48.0038 93.7678ZM63.2085 92.9059C62.8387 92.775 62.4319 92.5809 62.0312 92.6459C61.3402 92.7579 60.7252 93.4313 60.1783 93.8748L60.4529 93.8214C61.8581 93.5513 63.719 93.2602 64.8986 94.154C64.9016 94.1488 64.9039 94.1437 64.9073 94.1385C65.0026 93.9938 65.1129 93.881 65.2333 93.7572C65.2448 93.7463 65.2559 93.7351 65.2669 93.7237L65.3318 93.6545L65.1832 93.603C64.865 93.4905 64.488 93.3452 64.4284 93.324L64.4242 93.3225C64.0185 93.1851 63.6123 93.0491 63.2085 92.9059ZM51.6628 63.4405C51.6049 62.6965 52.7625 62.7026 52.8198 63.4405C52.9449 65.0515 52.5825 66.6471 51.8025 68.0595C51.7968 68.0698 51.7905 68.0789 51.7844 68.0886C52.2723 68.3426 52.7657 68.5862 53.2701 68.804C53.9153 69.0826 54.5726 69.3364 55.2417 69.5516C55.847 69.7465 56.5927 69.8234 57.1015 70.2288C58.1745 71.0835 57.7714 72.8574 57.565 74.0073L57.5328 74.1888C57.43 74.7805 57.3557 75.3875 57.605 75.9554C57.8713 76.5619 58.4098 77.0119 58.8902 77.4459L58.9872 77.5339C59.4128 77.9217 59.899 78.393 60.2112 78.9188C60.4961 78.3294 60.8846 77.8478 61.2953 77.3056C61.5883 76.9186 61.3797 76.7911 61.1692 76.4131C60.9666 76.0493 60.8677 75.6615 60.931 75.2464C61.0479 74.48 61.6603 73.9263 62.2698 73.5103C62.9897 73.0192 63.7931 72.6554 64.5372 72.1986C66.0663 71.26 67.5554 70.1869 68.897 68.995C68.9341 68.9621 68.9982 69.0052 68.9686 69.0503C67.9088 70.6629 66.6661 72.0563 65.1389 73.2391C64.5196 73.7187 63.8691 74.1166 63.2142 74.5347L63.0259 74.6556C62.763 74.826 62.435 75.0538 62.3161 75.3439C62.1964 75.6356 62.4516 75.8559 62.5889 76.0976C63.0249 76.8651 62.8146 77.5813 62.2976 78.2322L62.2735 78.2621C61.7598 78.8954 61.3705 79.4844 61.1843 80.2935C60.7842 82.0315 61.3415 83.8418 61.9248 85.4735L61.9479 85.5378C62.2634 86.4172 62.5988 87.2903 62.8729 88.1839L62.9484 88.4309C63.1968 89.2531 63.4002 90.064 63.1215 90.9092C63.0268 91.1966 62.6348 91.2646 62.4721 90.994C61.8978 90.0399 61.7547 88.8917 61.3947 87.8427C61.0439 86.8203 60.641 85.8164 60.3022 84.7899C59.8658 83.4681 59.5738 82.0454 59.7323 80.659C59.7276 80.651 59.7225 80.6434 59.7186 80.6348L59.6075 80.3918C59.3046 79.7336 59.012 79.1588 58.4612 78.6342C57.8867 78.087 57.263 77.6025 56.8109 76.94C55.8289 75.501 56.4363 73.9003 56.5549 72.3269L56.5685 72.134C56.59 71.8073 56.6018 71.3633 56.3885 71.1372C56.1485 70.8827 55.5859 70.8177 55.2675 70.7051C54.4447 70.4138 53.6339 70.0744 52.8617 69.6668C52.1266 69.2789 51.4146 68.8504 50.7516 68.3483L50.4155 68.0954C49.8854 67.6952 49.3356 67.2582 48.9802 66.7134C48.9392 66.6507 49.0089 66.5495 49.0831 66.5796C49.6763 66.8204 50.2183 67.2034 50.7734 67.5367C50.782 67.5164 50.792 67.4959 50.8034 67.4753C51.4901 66.232 51.7725 64.8546 51.6628 63.4405ZM70.6122 71.9581C70.8485 71.3098 71.9257 71.3598 71.8827 72.1302C71.8498 72.722 71.5986 73.2562 71.3689 73.7936L71.3444 73.8512C71.1073 74.4111 70.8334 74.9368 70.5057 75.4499C69.8796 76.4309 69.1461 77.3413 68.3628 78.2004C67.6525 78.9793 66.7204 79.4556 65.6462 79.3765C65.1936 79.3431 64.7368 79.2279 64.3402 79.0018C63.8691 78.7331 63.3575 77.9262 62.7566 78.1216C62.6984 78.1405 62.6442 78.0553 62.6945 78.015C63.3882 77.4561 64.1757 78.3227 64.84 78.5315C65.8409 78.846 66.868 78.4983 67.5122 77.6888C68.1848 76.8437 68.8039 75.8974 69.3692 74.9772C69.6563 74.51 69.9182 74.025 70.1444 73.5252C70.3727 73.0207 70.4246 72.4725 70.6122 71.9581ZM68.9985 67.9687C68.9694 67.8792 69.0805 67.794 69.1592 67.8452C69.6151 68.1421 70.0101 68.5344 70.4306 68.8782C70.8972 69.2597 71.3672 69.6335 71.8444 70.0014C72.5402 70.538 71.7333 71.5258 71.1208 70.9396C70.2827 70.1378 69.3648 69.0894 68.9985 67.9687ZM66.4957 64.8305C66.6809 64.1161 67.7763 64.4107 67.6167 65.1168L67.6115 65.1383C67.3091 66.3047 67.7397 67.4921 68.659 68.2482L68.6928 68.2757C69.2744 68.7413 68.4505 69.5552 67.8747 69.0941C66.6176 68.0876 66.0946 66.378 66.4957 64.8305Z" fill="black"/>
<path fill-rule="evenodd" clip-rule="evenodd" d="M76.01 42.086C75.6493 39.2062 74.5161 36.1487 73.3244 33.4639C70.6447 27.7876 64.5098 27.0061 59.0101 25.8357C53.583 25.0453 47.8361 24.3316 42.4908 25.9086C39.4858 26.6451 38.3121 30.2253 38.7864 33.0507C39.057 34.8113 39.8581 36.4775 40.5412 38.1092C41.899 41.46 42.7604 45.0474 42.7619 48.6753C42.6687 51.0461 42.3342 53.7522 45.0576 54.7564C47.6492 56.0456 47.8682 59.5405 51.1132 61.5235C52.4254 64.1824 55.9997 64.4164 58.5722 65.0331C60.1982 65.3444 61.8425 65.5736 63.4913 65.7216C68.2655 66.3336 72.0848 64.9496 74.584 60.695C76.2564 58.1057 77.5018 55.116 77.1941 51.9779C76.8877 48.6733 76.3772 45.3861 76.01 42.086Z" fill="white"/>
<path fill-rule="evenodd" clip-rule="evenodd" d="M59.0518 18.9385C59.3243 18.6295 59.7441 18.7355 59.9989 18.9798C60.1648 19.0287 60.3255 19.1014 60.4773 19.1977C60.8204 19.1536 61.1801 19.1536 61.5165 19.166C61.5981 19.1202 61.6856 19.0794 61.7808 19.0444C62.4611 18.7956 63.0636 18.922 63.5605 19.2551C63.7998 19.0286 64.1018 18.8865 64.4878 18.9079C64.8323 18.9272 65.0778 19.0894 65.2882 19.3029C65.498 19.0003 65.8372 18.7844 66.2597 18.7543C66.8503 18.7123 67.4181 18.9493 67.8886 19.3161C68.1628 19.0015 68.5365 18.8206 68.9531 18.8189C69.2271 18.7691 69.5163 18.7887 69.7777 18.8677C70.1571 18.9823 70.4902 19.1971 70.7555 19.4758C71.1752 19.0737 71.6891 18.7844 72.2815 18.8266C73.0483 18.882 73.6838 19.446 73.9793 20.1401C74.4982 20.3481 74.9773 20.6447 75.3777 21.0676C75.3991 21.0899 75.4195 21.1132 75.4409 21.1366C75.6567 21.2163 75.8598 21.3291 76.0386 21.4778C76.6052 21.9494 76.7315 22.6319 76.5439 23.3007C76.5702 23.4077 76.5925 23.5166 76.6129 23.6254C77.1436 23.7061 77.6256 24.0124 77.8996 24.5112C78.2748 25.1956 78.2009 26.0977 77.7947 26.7512C77.62 27.0322 77.3984 27.2691 77.1494 27.4761C77.4309 28.1158 77.2958 28.8792 76.8419 29.3966C76.7313 29.575 76.5955 29.736 76.4428 29.8818C76.6114 30.5432 76.3115 31.2256 75.7128 31.579L75.6616 31.7072C75.653 31.7285 75.6443 31.7497 75.6353 31.7707C75.6287 31.7979 75.6205 31.8243 75.6124 31.8508C75.5981 32.0855 75.5209 32.3158 75.3675 32.5328C75.0536 32.9775 74.6644 33.2675 74.4581 33.7867L74.4374 33.8412C74.3487 34.0869 74.0622 34.2602 73.818 34.1844C75.1735 36.9689 75.8841 40.0672 76.3719 43.1037C76.6152 44.6185 76.8029 46.1385 76.9552 47.6644L77.1045 49.1839C77.2358 50.5346 77.3527 51.8897 77.3535 53.2448C77.3554 56.3103 76.4788 59.2589 74.5974 61.6983C72.8179 64.0042 70.2999 65.6755 67.4554 66.3337C64.5185 67.0123 61.0734 66.7449 58.4397 65.1913C57.6632 64.7345 58.3435 63.6358 59.1336 64.0034C60.6292 64.6995 62.1492 65.2167 63.8071 65.3324C65.4233 65.446 67.0433 65.2438 68.5759 64.7149C71.1114 63.8391 73.2689 62.0045 74.6557 59.7198C75.3389 58.5939 75.8335 57.3719 76.0969 56.0807C76.4247 54.4714 76.3753 52.8081 76.2549 51.1782L76.2466 51.0671C76.0085 47.9268 75.6946 44.7671 75.1873 41.6581C74.7389 38.9088 74.0493 36.2151 73.1542 33.5811C72.8036 33.2724 72.4113 33.0169 71.9916 32.8228C68.918 32.6944 65.8388 32.7319 62.7692 32.944C60.1513 33.1262 57.5461 33.4342 54.9605 33.8833L54.6836 33.9319C54.1112 34.0339 53.4756 34.0922 52.9362 34.3227C52.4736 34.5211 52.2861 34.9022 52.1694 35.3707C51.8759 36.5558 51.8312 37.8528 51.7817 39.0681C51.7331 40.256 51.8429 41.4539 51.7477 42.638C51.667 43.6286 51.4134 44.6427 50.6796 45.3593C50.2957 45.7345 49.8234 45.9396 49.3803 46.2245C49.0936 46.4083 48.9721 46.5978 49.009 46.9381C49.0887 47.6828 49.6884 48.621 49.0149 49.2587C48.8963 49.3705 48.6913 49.3851 48.5746 49.2587C48.2967 48.9565 47.9128 48.726 47.5834 48.4819C47.4454 48.3809 47.56 48.1845 47.7165 48.2544C47.9225 48.3469 48.1325 48.4558 48.3472 48.551C47.873 48.1602 47.1985 47.9686 46.6368 47.8548C46.354 47.7985 46.0566 47.7819 45.7622 47.8083C45.5445 47.9122 45.3219 48.0086 45.0994 48.1028C44.8166 48.2215 44.5308 48.3293 44.2432 48.4315C43.2451 49.2451 42.7689 50.5684 42.9769 51.8624C43.0906 52.5769 43.42 53.3538 44.041 53.7709C44.7767 54.2647 45.7622 54.0527 46.5571 54.4193C47.3015 54.7624 47.7544 55.4557 48.0936 56.1732L48.235 56.4719C48.5498 57.1333 48.8734 57.7771 49.3035 58.379C49.8011 59.0761 50.4104 59.7022 51.0752 60.2399C51.3976 60.5002 51.7414 60.7343 52.0966 60.9474L52.1937 61.0051C52.5533 61.216 52.8108 61.4172 52.8351 61.8634C52.8429 62.019 52.7448 62.1609 52.6184 62.2416C52.0742 62.5868 51.5329 62.1551 51.08 61.8537C50.5912 61.529 50.1237 61.1635 49.6913 60.7649C48.8691 60.0086 48.1577 59.1102 47.6106 58.135C47.1937 57.3923 46.9565 56.3472 46.2976 55.7717C45.8953 55.4206 45.3268 55.4178 44.8243 55.3535C44.3569 55.2933 43.9147 55.1961 43.4988 54.9657C41.8068 54.0256 41.3287 51.7496 41.73 49.9909C41.7981 49.6943 41.8933 49.4055 42.0109 49.1275C41.3811 49.2325 40.6736 48.5812 40.9292 47.9239C40.9487 47.8743 40.971 47.8277 40.9924 47.78C40.5774 47.5068 40.2499 47.0927 40.0944 46.5511C40.0147 46.2711 40.0031 45.9882 40.0449 45.715C39.8437 45.58 39.6775 45.3942 39.5706 45.1657C39.2363 45.0111 38.9399 44.7798 38.763 44.4493C38.5181 43.9932 38.5492 43.5732 38.7358 43.195C38.7096 43.1475 38.6843 43.0989 38.66 43.0492C37.9749 42.6147 37.4967 41.866 37.5512 41.0358C37.5686 40.7606 37.6367 40.5127 37.7416 40.2892C37.7329 40.261 37.7241 40.2317 37.7164 40.2035C37.143 39.9119 36.6687 39.4327 36.4996 38.793C36.3305 38.1493 36.5298 37.5076 36.9282 37.0137C36.3451 36.587 35.9943 35.9911 36.2071 35.0897C36.2936 34.7233 36.4676 34.3897 36.7027 34.1088C36.7018 34.1001 36.6998 34.0914 36.6979 34.0825L36.6433 34.0402C35.9235 33.4719 35.5097 32.7478 35.9515 31.8571C36.1498 31.4567 36.4326 31.1775 36.7649 30.9938L36.7815 30.9413V30.9413C36.5434 30.4309 36.4627 29.8641 36.6269 29.2681C36.7611 28.7772 37.0788 28.3863 37.4851 28.1268C37.4579 27.907 37.4617 27.6728 37.5055 27.419C37.5784 26.9903 37.7912 26.616 38.1022 26.3506C38.1138 26.2941 38.1284 26.2388 38.1449 26.1833C38.2499 25.8441 38.4462 25.4756 38.6736 25.2023C38.8612 24.9758 39.0711 24.8932 39.3277 24.8844C39.3121 24.6755 39.3228 24.4634 39.3656 24.2486C39.4968 23.5856 39.9185 22.9624 40.5434 22.6794C40.8 22.5637 41.0702 22.5298 41.3306 22.5579C41.5522 22.0913 41.9846 21.753 42.5162 21.6801C42.7232 21.6509 42.9157 21.6528 43.0925 21.6791C43.1926 21.6324 43.2966 21.5907 43.4055 21.5526C43.4774 21.5274 43.5503 21.504 43.6232 21.4808C43.869 21.1755 44.1926 20.9314 44.5707 20.7847C45.007 20.6146 45.4512 20.632 45.8448 20.7749L45.9701 20.7486V20.7486C46.1664 20.4084 46.4794 20.1449 46.9604 20.0253C47.5066 19.8902 48.0673 20.0788 48.4969 20.4221C48.4988 20.4221 48.5008 20.4221 48.5037 20.421C48.7282 19.9184 49.1121 19.5684 49.7564 19.5927C50.1577 19.6082 50.5202 19.8076 50.8001 20.0915C50.9556 20.072 51.1111 20.0545 51.2676 20.0371C51.4328 19.8435 51.6165 19.6628 51.8196 19.5004C52.1519 19.2339 52.5844 19.2554 52.8293 19.6306C52.8828 19.7123 52.9323 19.7949 52.9819 19.8775L53.2064 19.862V19.862C53.4707 19.5052 53.8313 19.2641 54.325 19.2447C54.7778 19.2261 55.1005 19.4479 55.3464 19.7579C55.5466 19.7531 55.7477 19.7493 55.9489 19.7463C56.1831 19.475 56.4591 19.2359 56.774 19.0375C57.015 18.8859 57.3707 18.9375 57.566 19.1397C57.698 19.2772 57.8208 19.4207 57.935 19.5692C58.2294 19.2391 58.627 19.0216 59.0518 18.9385ZM44.7485 49.811C45.2024 49.5524 45.8127 49.8324 46.2519 50.0521C46.7874 50.3195 47.319 50.723 47.6465 51.2285C48.0926 51.9168 47.044 52.473 46.5746 51.8556C46.286 51.4755 46.0556 51.0924 45.7058 50.7599C45.386 50.4546 44.9225 50.2505 44.7388 49.848C44.732 49.8344 44.7339 49.8188 44.7485 49.811ZM45.0672 33.1038L45.0757 33.0796C45.2048 32.7264 44.6415 32.5741 44.5135 32.9244C44.3195 33.4553 44.5432 34.0325 45.0674 34.2618C45.2127 34.3253 45.3786 34.3033 45.4662 34.1572C45.5398 34.0342 45.5057 33.8211 45.3616 33.7582C45.0667 33.6291 44.9679 33.4014 45.0672 33.1038V33.1038ZM40.2148 32.1162C40.4967 31.8673 40.083 31.4559 39.8024 31.7038C39.5406 31.9349 39.3465 32.249 39.3969 32.6101C39.4483 32.9782 39.7258 33.2381 40.0295 33.4218C40.3513 33.6165 40.6447 33.1123 40.3237 32.918L40.2877 32.896C40.1529 32.8123 39.9952 32.6972 39.9724 32.5325C39.9482 32.3575 40.0962 32.2209 40.2148 32.1162ZM41.815 27.7241L41.835 27.7094C42.1378 27.4932 41.8469 26.987 41.5406 27.2057C41.2598 27.4063 41.0345 27.6668 41.0108 28.0261C40.9877 28.3754 41.1654 28.6781 41.3977 28.9238C41.6561 29.1971 42.0679 28.7841 41.81 28.5114C41.5587 28.2456 41.5096 27.9556 41.815 27.7241V27.7241Z" fill="black"/>
<path fill-rule="evenodd" clip-rule="evenodd" d="M68.0284 57.1831C68.1775 56.9238 68.5208 56.6836 68.8348 56.7204C70.242 56.8855 70.2395 58.5921 69.6962 59.5885C69.2144 60.4719 68.2174 60.9905 67.2196 60.9147C66.1713 60.8351 65.278 60.2185 64.8849 59.2375C64.625 58.5885 64.5049 57.3905 65.1964 56.9544C65.2092 56.9463 65.2304 56.9483 65.2406 56.9601C65.5722 57.346 65.5852 57.9253 65.8755 58.3549C66.1455 58.7545 66.5649 59.0845 67.0563 59.1354C67.4233 59.1735 67.7945 59.0411 67.938 58.7115C68.0157 58.5333 68.0069 58.4365 67.9777 58.3138L67.9511 58.2071C67.8592 57.8337 67.818 57.5493 68.0284 57.1831ZM68.4044 49.6983C69.1383 50.1445 70.2565 51.1851 69.467 52.2914C68.5377 53.2669 67.1997 52.1484 66.5404 51.6426C65.9291 51.2506 65.2422 52.2588 65.8094 52.7166C70.5737 56.2452 72.5071 49.815 68.7756 49.1736C68.3647 49.1029 68.2121 49.5602 68.4044 49.6983ZM60.6547 46.6388C61.1052 45.9627 62.1334 46.0623 62.3815 46.8645C62.5159 47.2991 62.3303 47.6898 62.3399 48.1237C62.348 48.4904 62.324 48.8989 62.2116 49.2539C61.9554 50.0636 61.2275 50.6355 60.3664 50.6117C59.5081 50.5881 58.7521 50.0446 58.3926 49.2792C58.0319 48.5109 58.1083 47.7157 58.3716 46.9344C58.3843 46.8969 58.4334 46.8787 58.4631 46.9103C58.7744 47.2413 59.0023 47.5907 59.2381 47.9613L59.4797 48.3412C59.6644 48.6272 59.9328 48.9926 60.2777 48.9696L60.3294 48.9645C60.4252 48.9563 60.4106 48.9753 60.4845 48.8446C60.5187 48.7842 60.5125 48.6718 60.529 48.6004L60.5347 48.5763V48.5763L60.5316 48.5633C60.5243 48.5288 60.5171 48.4636 60.5112 48.3506L60.5099 48.3257C60.485 47.7971 60.3356 47.1178 60.6547 46.6388ZM72.073 47.0886C71.9923 46.2239 73.2075 46.0319 73.6115 46.6717C73.8222 47.0053 73.8835 47.4245 73.9301 47.8216L73.9519 48.01C73.9997 48.4179 74.0187 48.8422 73.8417 49.2226C73.563 49.8218 72.9568 50.1385 72.303 50.0883C71.6786 50.0403 71.1089 49.6782 70.8086 49.1284C70.5409 48.6378 70.2747 47.68 70.5998 47.1683C70.6195 47.1373 70.6587 47.1333 70.6857 47.1572C70.993 47.4301 71.043 47.9279 71.2257 48.2834C71.4141 48.6501 71.7 49.0075 72.1331 49.0632C72.5475 49.1165 72.7058 48.8901 72.6001 48.4949C72.4637 47.9847 72.1244 47.6376 72.073 47.0886ZM60.9833 41.4979L61.182 41.4217C61.8629 41.1644 62.7977 40.867 63.3512 41.4209C63.6927 41.7624 63.7577 42.2655 63.514 42.6823C63.2187 43.1872 62.6889 43.1996 62.1774 43.274C61.5955 43.3586 61.0038 43.5194 60.4621 43.7486C59.8519 44.0069 59.2856 44.3289 58.7308 44.6886C58.2034 45.0303 57.678 45.5888 57.0468 45.6941C57.021 45.6984 56.9918 45.6873 56.9851 45.659C56.8417 45.0417 57.2401 44.4341 57.5956 43.9525C58.0257 43.3694 58.5469 42.8908 59.1294 42.4616C59.6916 42.0474 60.334 41.748 60.9833 41.4979ZM73.3516 43.6925L73.4123 43.6819C73.8251 43.6131 74.1993 43.6289 74.5105 43.9561C74.748 44.2056 74.8395 44.5291 74.7263 44.8591C74.6218 45.1635 74.3882 45.4727 74.0491 45.5365C72.9044 45.7519 71.6365 45.7164 70.486 45.5532C69.9597 45.4785 69.4286 45.3872 68.9159 45.2431L68.68 45.1747C68.252 45.0524 67.762 44.9246 67.4511 44.6097C67.3393 44.4965 67.4038 44.3345 67.5375 44.2821C68.08 44.0696 68.8235 44.1827 69.4019 44.1661C70.0748 44.1468 70.7488 44.0964 71.4185 44.0268C72.0729 43.9588 72.7062 43.8109 73.3516 43.6925Z" fill="black"/>
<path fill-rule="evenodd" clip-rule="evenodd" d="M59.7466 59.6958C60.5334 57.8518 62.2507 56.4965 64.2279 56.001C65.6798 55.6381 67.2036 55.6497 68.6836 55.7937C69.4591 55.8687 70.2908 55.9301 71.0217 56.2182C71.6457 56.4643 72.1543 56.9295 72.5367 57.4756C72.9919 58.1227 73.3015 58.8634 73.5189 59.6225C73.5497 59.7304 73.5787 59.8392 73.6058 59.9485C73.5113 60.5212 73.3106 61.0087 72.7803 61.3688C72.2628 61.7204 71.6453 61.8643 71.0298 61.9154C70.9694 61.8864 70.9111 61.8566 70.8576 61.826C69.8985 61.2767 69.2233 59.9786 68.0127 60.1543C66.9323 60.3112 66.2211 61.6711 65.5786 62.4686C63.5162 62.709 61.4553 62.089 59.7773 60.9092C59.692 60.5054 59.6871 60.0982 59.7466 59.6958M75.0075 58.2973C74.8425 57.8342 74.6347 57.3856 74.3884 56.963C73.5741 55.5655 72.3241 54.452 70.8401 53.8155C67.3296 52.3118 62.7875 53.3718 59.9526 55.8379C58.9842 56.681 58.005 57.9198 57.7089 59.2524C57.6205 59.2699 57.537 59.3159 57.4683 59.3807C55.42 58.0907 53.3108 56.8495 51.6603 55.0613C50.4616 53.762 49.6279 52.2243 49.1174 50.5347C49.0757 50.3956 48.8515 50.4159 48.8583 50.5698C48.8602 50.6058 48.8622 50.6417 48.8641 50.6777C48.8428 50.6116 48.7418 50.6456 48.7341 50.7099C48.4594 52.7624 48.1158 54.9386 48.4322 57.0019C48.6215 58.2331 49.1805 59.1344 49.9278 60.1077C50.7285 61.1509 51.635 62.1212 52.5619 63.0518C53.15 63.6424 53.7644 64.3237 54.4845 64.7568C55.3221 65.26 56.2723 65.6425 57.1661 66.0308C58.0755 66.4269 58.9985 66.7928 59.939 67.1101C61.8189 67.7466 63.7619 68.1865 65.7389 68.3792C67.3219 68.533 69.131 68.7005 70.6479 68.1048C71.8106 67.6483 72.7492 66.8231 73.4936 65.8303C74.304 64.749 74.9446 63.5174 75.2988 62.2186C75.6668 60.8694 75.0851 58.5148 75.0075 58.2973" fill="black"/>
</svg>
