<svg width="27" height="24" viewBox="0 0 27 24" fill="none" xmlns="http://www.w3.org/2000/svg">
<path d="M17.4375 4.68293C18.675 4.68293 19.6875 3.62927 19.6875 2.34146C19.6875 1.05366 18.675 0 17.4375 0C16.2 0 15.1875 1.05366 15.1875 2.34146C15.1875 3.62927 16.2 4.68293 17.4375 4.68293ZM5.625 12.2927C2.475 12.2927 0 14.8683 0 18.1463C0 21.4244 2.475 24 5.625 24C8.775 24 11.25 21.4244 11.25 18.1463C11.25 14.8683 8.775 12.2927 5.625 12.2927ZM5.625 22.2439C3.4875 22.2439 1.6875 20.3707 1.6875 18.1463C1.6875 15.922 3.4875 14.0488 5.625 14.0488C7.7625 14.0488 9.5625 15.922 9.5625 18.1463C9.5625 20.3707 7.7625 22.2439 5.625 22.2439ZM12.15 10.5366L14.85 7.72683L15.75 8.66341C17.2125 10.1854 19.125 11.122 21.4875 11.122V8.78049C19.8 8.78049 18.45 8.07805 17.4375 7.02439L15.3 4.8C14.7375 4.33171 14.175 4.09756 13.5 4.09756C12.825 4.09756 12.2625 4.33171 11.925 4.8L8.775 8.07805C8.325 8.54634 8.1 9.13171 8.1 9.71707C8.1 10.4195 8.325 11.0049 8.775 11.3561L12.375 14.6341V20.4878H14.625V13.2293L12.15 10.5366ZM21.375 12.2927C18.225 12.2927 15.75 14.8683 15.75 18.1463C15.75 21.4244 18.225 24 21.375 24C24.525 24 27 21.4244 27 18.1463C27 14.8683 24.525 12.2927 21.375 12.2927ZM21.375 22.2439C19.2375 22.2439 17.4375 20.3707 17.4375 18.1463C17.4375 15.922 19.2375 14.0488 21.375 14.0488C23.5125 14.0488 25.3125 15.922 25.3125 18.1463C25.3125 20.3707 23.5125 22.2439 21.375 22.2439Z" fill="white"/>
</svg>
