<svg width="100" height="100" viewBox="0 0 100 100" fill="none" xmlns="http://www.w3.org/2000/svg">
<mask id="mask0_1142_2102" style="mask-type:alpha" maskUnits="userSpaceOnUse" x="0" y="0" width="100" height="100">
<rect x="0.5" y="0.5" width="99" height="99" fill="#D9D9D9" stroke="black"/>
</mask>
<g mask="url(#mask0_1142_2102)">
<path d="M46.4375 -7.31707C47.675 -7.31707 48.6875 -8.37073 48.6875 -9.65854C48.6875 -10.9463 47.675 -12 46.4375 -12C45.2 -12 44.1875 -10.9463 44.1875 -9.65854C44.1875 -8.37073 45.2 -7.31707 46.4375 -7.31707ZM34.625 0.292682C31.475 0.292682 29 2.86829 29 6.14634C29 9.42439 31.475 12 34.625 12C37.775 12 40.25 9.42439 40.25 6.14634C40.25 2.86829 37.775 0.292682 34.625 0.292682ZM34.625 10.2439C32.4875 10.2439 30.6875 8.37073 30.6875 6.14634C30.6875 3.92195 32.4875 2.04878 34.625 2.04878C36.7625 2.04878 38.5625 3.92195 38.5625 6.14634C38.5625 8.37073 36.7625 10.2439 34.625 10.2439ZM41.15 -1.46342L43.85 -4.27317L44.75 -3.33659C46.2125 -1.81464 48.125 -0.878049 50.4875 -0.878049V-3.21951C48.8 -3.21951 47.45 -3.92195 46.4375 -4.97561L44.3 -7.2C43.7375 -7.66829 43.175 -7.90244 42.5 -7.90244C41.825 -7.90244 41.2625 -7.66829 40.925 -7.2L37.775 -3.92195C37.325 -3.45366 37.1 -2.86829 37.1 -2.28293C37.1 -1.58049 37.325 -0.995123 37.775 -0.643903L41.375 2.63415V8.4878H43.625V1.22927L41.15 -1.46342ZM50.375 0.292682C47.225 0.292682 44.75 2.86829 44.75 6.14634C44.75 9.42439 47.225 12 50.375 12C53.525 12 56 9.42439 56 6.14634C56 2.86829 53.525 0.292682 50.375 0.292682ZM50.375 10.2439C48.2375 10.2439 46.4375 8.37073 46.4375 6.14634C46.4375 3.92195 48.2375 2.04878 50.375 2.04878C52.5125 2.04878 54.3125 3.92195 54.3125 6.14634C54.3125 8.37073 52.5125 10.2439 50.375 10.2439Z" fill="white" fill-opacity="0.3"/>
<path d="M46.4375 92.6829C47.675 92.6829 48.6875 91.6293 48.6875 90.3415C48.6875 89.0537 47.675 88 46.4375 88C45.2 88 44.1875 89.0537 44.1875 90.3415C44.1875 91.6293 45.2 92.6829 46.4375 92.6829ZM34.625 100.293C31.475 100.293 29 102.868 29 106.146C29 109.424 31.475 112 34.625 112C37.775 112 40.25 109.424 40.25 106.146C40.25 102.868 37.775 100.293 34.625 100.293ZM34.625 110.244C32.4875 110.244 30.6875 108.371 30.6875 106.146C30.6875 103.922 32.4875 102.049 34.625 102.049C36.7625 102.049 38.5625 103.922 38.5625 106.146C38.5625 108.371 36.7625 110.244 34.625 110.244ZM41.15 98.5366L43.85 95.7268L44.75 96.6634C46.2125 98.1854 48.125 99.122 50.4875 99.122V96.7805C48.8 96.7805 47.45 96.078 46.4375 95.0244L44.3 92.8C43.7375 92.3317 43.175 92.0976 42.5 92.0976C41.825 92.0976 41.2625 92.3317 40.925 92.8L37.775 96.078C37.325 96.5463 37.1 97.1317 37.1 97.7171C37.1 98.4195 37.325 99.0049 37.775 99.3561L41.375 102.634V108.488H43.625V101.229L41.15 98.5366ZM50.375 100.293C47.225 100.293 44.75 102.868 44.75 106.146C44.75 109.424 47.225 112 50.375 112C53.525 112 56 109.424 56 106.146C56 102.868 53.525 100.293 50.375 100.293ZM50.375 110.244C48.2375 110.244 46.4375 108.371 46.4375 106.146C46.4375 103.922 48.2375 102.049 50.375 102.049C52.5125 102.049 54.3125 103.922 54.3125 106.146C54.3125 108.371 52.5125 110.244 50.375 110.244Z" fill="white" fill-opacity="0.3"/>
<path d="M95.4375 54.6829C96.675 54.6829 97.6875 53.6293 97.6875 52.3415C97.6875 51.0537 96.675 50 95.4375 50C94.2 50 93.1875 51.0537 93.1875 52.3415C93.1875 53.6293 94.2 54.6829 95.4375 54.6829ZM83.625 62.2927C80.475 62.2927 78 64.8683 78 68.1463C78 71.4244 80.475 74 83.625 74C86.775 74 89.25 71.4244 89.25 68.1463C89.25 64.8683 86.775 62.2927 83.625 62.2927ZM83.625 72.2439C81.4875 72.2439 79.6875 70.3707 79.6875 68.1463C79.6875 65.922 81.4875 64.0488 83.625 64.0488C85.7625 64.0488 87.5625 65.922 87.5625 68.1463C87.5625 70.3707 85.7625 72.2439 83.625 72.2439ZM90.15 60.5366L92.85 57.7268L93.75 58.6634C95.2125 60.1854 97.125 61.122 99.4875 61.122V58.7805C97.8 58.7805 96.45 58.078 95.4375 57.0244L93.3 54.8C92.7375 54.3317 92.175 54.0976 91.5 54.0976C90.825 54.0976 90.2625 54.3317 89.925 54.8L86.775 58.078C86.325 58.5463 86.1 59.1317 86.1 59.7171C86.1 60.4195 86.325 61.0049 86.775 61.3561L90.375 64.6341V70.4878H92.625V63.2293L90.15 60.5366ZM99.375 62.2927C96.225 62.2927 93.75 64.8683 93.75 68.1463C93.75 71.4244 96.225 74 99.375 74C102.525 74 105 71.4244 105 68.1463C105 64.8683 102.525 62.2927 99.375 62.2927ZM99.375 72.2439C97.2375 72.2439 95.4375 70.3707 95.4375 68.1463C95.4375 65.922 97.2375 64.0488 99.375 64.0488C101.512 64.0488 103.312 65.922 103.312 68.1463C103.312 70.3707 101.512 72.2439 99.375 72.2439Z" fill="white" fill-opacity="0.3"/>
<path d="M59.4375 49.6829C60.675 49.6829 61.6875 48.6293 61.6875 47.3415C61.6875 46.0537 60.675 45 59.4375 45C58.2 45 57.1875 46.0537 57.1875 47.3415C57.1875 48.6293 58.2 49.6829 59.4375 49.6829ZM47.625 57.2927C44.475 57.2927 42 59.8683 42 63.1463C42 66.4244 44.475 69 47.625 69C50.775 69 53.25 66.4244 53.25 63.1463C53.25 59.8683 50.775 57.2927 47.625 57.2927ZM47.625 67.2439C45.4875 67.2439 43.6875 65.3707 43.6875 63.1463C43.6875 60.922 45.4875 59.0488 47.625 59.0488C49.7625 59.0488 51.5625 60.922 51.5625 63.1463C51.5625 65.3707 49.7625 67.2439 47.625 67.2439ZM54.15 55.5366L56.85 52.7268L57.75 53.6634C59.2125 55.1854 61.125 56.122 63.4875 56.122V53.7805C61.8 53.7805 60.45 53.078 59.4375 52.0244L57.3 49.8C56.7375 49.3317 56.175 49.0976 55.5 49.0976C54.825 49.0976 54.2625 49.3317 53.925 49.8L50.775 53.078C50.325 53.5463 50.1 54.1317 50.1 54.7171C50.1 55.4195 50.325 56.0049 50.775 56.3561L54.375 59.6341V65.4878H56.625V58.2293L54.15 55.5366ZM63.375 57.2927C60.225 57.2927 57.75 59.8683 57.75 63.1463C57.75 66.4244 60.225 69 63.375 69C66.525 69 69 66.4244 69 63.1463C69 59.8683 66.525 57.2927 63.375 57.2927ZM63.375 67.2439C61.2375 67.2439 59.4375 65.3707 59.4375 63.1463C59.4375 60.922 61.2375 59.0488 63.375 59.0488C65.5125 59.0488 67.3125 60.922 67.3125 63.1463C67.3125 65.3707 65.5125 67.2439 63.375 67.2439Z" fill="white" fill-opacity="0.3"/>
<path d="M10.4375 90.6829C11.675 90.6829 12.6875 89.6293 12.6875 88.3415C12.6875 87.0537 11.675 86 10.4375 86C9.2 86 8.1875 87.0537 8.1875 88.3415C8.1875 89.6293 9.2 90.6829 10.4375 90.6829ZM-1.375 98.2927C-4.525 98.2927 -7 100.868 -7 104.146C-7 107.424 -4.525 110 -1.375 110C1.775 110 4.25 107.424 4.25 104.146C4.25 100.868 1.775 98.2927 -1.375 98.2927ZM-1.375 108.244C-3.5125 108.244 -5.3125 106.371 -5.3125 104.146C-5.3125 101.922 -3.5125 100.049 -1.375 100.049C0.7625 100.049 2.5625 101.922 2.5625 104.146C2.5625 106.371 0.7625 108.244 -1.375 108.244ZM5.15 96.5366L7.85 93.7268L8.75 94.6634C10.2125 96.1854 12.125 97.122 14.4875 97.122V94.7805C12.8 94.7805 11.45 94.078 10.4375 93.0244L8.3 90.8C7.7375 90.3317 7.175 90.0976 6.5 90.0976C5.825 90.0976 5.2625 90.3317 4.925 90.8L1.775 94.078C1.325 94.5463 1.1 95.1317 1.1 95.7171C1.1 96.4195 1.325 97.0049 1.775 97.3561L5.375 100.634V106.488H7.625V99.2293L5.15 96.5366ZM14.375 98.2927C11.225 98.2927 8.75 100.868 8.75 104.146C8.75 107.424 11.225 110 14.375 110C17.525 110 20 107.424 20 104.146C20 100.868 17.525 98.2927 14.375 98.2927ZM14.375 108.244C12.2375 108.244 10.4375 106.371 10.4375 104.146C10.4375 101.922 12.2375 100.049 14.375 100.049C16.5125 100.049 18.3125 101.922 18.3125 104.146C18.3125 106.371 16.5125 108.244 14.375 108.244Z" fill="white" fill-opacity="0.3"/>
<path d="M15.625 7.12195C16.45 7.12195 17.125 6.41951 17.125 5.56098C17.125 4.70244 16.45 4 15.625 4C14.8 4 14.125 4.70244 14.125 5.56098C14.125 6.41951 14.8 7.12195 15.625 7.12195ZM7.75 12.1951C5.65 12.1951 4 13.9122 4 16.0976C4 18.2829 5.65 20 7.75 20C9.85 20 11.5 18.2829 11.5 16.0976C11.5 13.9122 9.85 12.1951 7.75 12.1951ZM7.75 18.8293C6.325 18.8293 5.125 17.5805 5.125 16.0976C5.125 14.6146 6.325 13.3659 7.75 13.3659C9.175 13.3659 10.375 14.6146 10.375 16.0976C10.375 17.5805 9.175 18.8293 7.75 18.8293ZM12.1 11.0244L13.9 9.15122L14.5 9.77561C15.475 10.7902 16.75 11.4146 18.325 11.4146V9.85366C17.2 9.85366 16.3 9.38537 15.625 8.68293L14.2 7.2C13.825 6.8878 13.45 6.73171 13 6.73171C12.55 6.73171 12.175 6.8878 11.95 7.2L9.85 9.38537C9.55 9.69756 9.4 10.0878 9.4 10.478C9.4 10.9463 9.55 11.3366 9.85 11.5707L12.25 13.7561V17.6585H13.75V12.8195L12.1 11.0244ZM18.25 12.1951C16.15 12.1951 14.5 13.9122 14.5 16.0976C14.5 18.2829 16.15 20 18.25 20C20.35 20 22 18.2829 22 16.0976C22 13.9122 20.35 12.1951 18.25 12.1951ZM18.25 18.8293C16.825 18.8293 15.625 17.5805 15.625 16.0976C15.625 14.6146 16.825 13.3659 18.25 13.3659C19.675 13.3659 20.875 14.6146 20.875 16.0976C20.875 17.5805 19.675 18.8293 18.25 18.8293Z" fill="white" fill-opacity="0.3"/>
<path d="M37.625 33.122C38.45 33.122 39.125 32.4195 39.125 31.561C39.125 30.7024 38.45 30 37.625 30C36.8 30 36.125 30.7024 36.125 31.561C36.125 32.4195 36.8 33.122 37.625 33.122ZM29.75 38.1951C27.65 38.1951 26 39.9122 26 42.0976C26 44.2829 27.65 46 29.75 46C31.85 46 33.5 44.2829 33.5 42.0976C33.5 39.9122 31.85 38.1951 29.75 38.1951ZM29.75 44.8293C28.325 44.8293 27.125 43.5805 27.125 42.0976C27.125 40.6146 28.325 39.3659 29.75 39.3659C31.175 39.3659 32.375 40.6146 32.375 42.0976C32.375 43.5805 31.175 44.8293 29.75 44.8293ZM34.1 37.0244L35.9 35.1512L36.5 35.7756C37.475 36.7902 38.75 37.4146 40.325 37.4146V35.8537C39.2 35.8537 38.3 35.3854 37.625 34.6829L36.2 33.2C35.825 32.8878 35.45 32.7317 35 32.7317C34.55 32.7317 34.175 32.8878 33.95 33.2L31.85 35.3854C31.55 35.6976 31.4 36.0878 31.4 36.478C31.4 36.9463 31.55 37.3366 31.85 37.5707L34.25 39.7561V43.6585H35.75V38.8195L34.1 37.0244ZM40.25 38.1951C38.15 38.1951 36.5 39.9122 36.5 42.0976C36.5 44.2829 38.15 46 40.25 46C42.35 46 44 44.2829 44 42.0976C44 39.9122 42.35 38.1951 40.25 38.1951ZM40.25 44.8293C38.825 44.8293 37.625 43.5805 37.625 42.0976C37.625 40.6146 38.825 39.3659 40.25 39.3659C41.675 39.3659 42.875 40.6146 42.875 42.0976C42.875 43.5805 41.675 44.8293 40.25 44.8293Z" fill="white" fill-opacity="0.3"/>
<path d="M67.625 18.122C68.45 18.122 69.125 17.4195 69.125 16.561C69.125 15.7024 68.45 15 67.625 15C66.8 15 66.125 15.7024 66.125 16.561C66.125 17.4195 66.8 18.122 67.625 18.122ZM59.75 23.1951C57.65 23.1951 56 24.9122 56 27.0976C56 29.2829 57.65 31 59.75 31C61.85 31 63.5 29.2829 63.5 27.0976C63.5 24.9122 61.85 23.1951 59.75 23.1951ZM59.75 29.8293C58.325 29.8293 57.125 28.5805 57.125 27.0976C57.125 25.6146 58.325 24.3659 59.75 24.3659C61.175 24.3659 62.375 25.6146 62.375 27.0976C62.375 28.5805 61.175 29.8293 59.75 29.8293ZM64.1 22.0244L65.9 20.1512L66.5 20.7756C67.475 21.7902 68.75 22.4146 70.325 22.4146V20.8537C69.2 20.8537 68.3 20.3854 67.625 19.6829L66.2 18.2C65.825 17.8878 65.45 17.7317 65 17.7317C64.55 17.7317 64.175 17.8878 63.95 18.2L61.85 20.3854C61.55 20.6976 61.4 21.0878 61.4 21.478C61.4 21.9463 61.55 22.3366 61.85 22.5707L64.25 24.7561V28.6585H65.75V23.8195L64.1 22.0244ZM70.25 23.1951C68.15 23.1951 66.5 24.9122 66.5 27.0976C66.5 29.2829 68.15 31 70.25 31C72.35 31 74 29.2829 74 27.0976C74 24.9122 72.35 23.1951 70.25 23.1951ZM70.25 29.8293C68.825 29.8293 67.625 28.5805 67.625 27.0976C67.625 25.6146 68.825 24.3659 70.25 24.3659C71.675 24.3659 72.875 25.6146 72.875 27.0976C72.875 28.5805 71.675 29.8293 70.25 29.8293Z" fill="white" fill-opacity="0.3"/>
<path d="M78.625 90.122C79.45 90.122 80.125 89.4195 80.125 88.561C80.125 87.7024 79.45 87 78.625 87C77.8 87 77.125 87.7024 77.125 88.561C77.125 89.4195 77.8 90.122 78.625 90.122ZM70.75 95.1951C68.65 95.1951 67 96.9122 67 99.0976C67 101.283 68.65 103 70.75 103C72.85 103 74.5 101.283 74.5 99.0976C74.5 96.9122 72.85 95.1951 70.75 95.1951ZM70.75 101.829C69.325 101.829 68.125 100.58 68.125 99.0976C68.125 97.6146 69.325 96.3659 70.75 96.3659C72.175 96.3659 73.375 97.6146 73.375 99.0976C73.375 100.58 72.175 101.829 70.75 101.829ZM75.1 94.0244L76.9 92.1512L77.5 92.7756C78.475 93.7902 79.75 94.4146 81.325 94.4146V92.8537C80.2 92.8537 79.3 92.3854 78.625 91.6829L77.2 90.2C76.825 89.8878 76.45 89.7317 76 89.7317C75.55 89.7317 75.175 89.8878 74.95 90.2L72.85 92.3854C72.55 92.6976 72.4 93.0878 72.4 93.478C72.4 93.9463 72.55 94.3366 72.85 94.5707L75.25 96.7561V100.659H76.75V95.8195L75.1 94.0244ZM81.25 95.1951C79.15 95.1951 77.5 96.9122 77.5 99.0976C77.5 101.283 79.15 103 81.25 103C83.35 103 85 101.283 85 99.0976C85 96.9122 83.35 95.1951 81.25 95.1951ZM81.25 101.829C79.825 101.829 78.625 100.58 78.625 99.0976C78.625 97.6146 79.825 96.3659 81.25 96.3659C82.675 96.3659 83.875 97.6146 83.875 99.0976C83.875 100.58 82.675 101.829 81.25 101.829Z" fill="white" fill-opacity="0.3"/>
<path d="M89.1042 33.9512C89.6083 33.9512 90.0208 33.5122 90.0208 32.9756C90.0208 32.439 89.6083 32 89.1042 32C88.6 32 88.1875 32.439 88.1875 32.9756C88.1875 33.5122 88.6 33.9512 89.1042 33.9512ZM84.2917 37.122C83.0083 37.122 82 38.1951 82 39.561C82 40.9268 83.0083 42 84.2917 42C85.575 42 86.5833 40.9268 86.5833 39.561C86.5833 38.1951 85.575 37.122 84.2917 37.122ZM84.2917 41.2683C83.4208 41.2683 82.6875 40.4878 82.6875 39.561C82.6875 38.6341 83.4208 37.8537 84.2917 37.8537C85.1625 37.8537 85.8958 38.6341 85.8958 39.561C85.8958 40.4878 85.1625 41.2683 84.2917 41.2683ZM86.95 36.3902L88.05 35.2195L88.4167 35.6098C89.0125 36.2439 89.7917 36.6341 90.7542 36.6341V35.6585C90.0667 35.6585 89.5167 35.3659 89.1042 34.9268L88.2333 34C88.0042 33.8049 87.775 33.7073 87.5 33.7073C87.225 33.7073 86.9958 33.8049 86.8583 34L85.575 35.3659C85.3917 35.561 85.3 35.8049 85.3 36.0488C85.3 36.3415 85.3917 36.5854 85.575 36.7317L87.0417 38.0976V40.5366H87.9583V37.5122L86.95 36.3902ZM90.7083 37.122C89.425 37.122 88.4167 38.1951 88.4167 39.561C88.4167 40.9268 89.425 42 90.7083 42C91.9917 42 93 40.9268 93 39.561C93 38.1951 91.9917 37.122 90.7083 37.122ZM90.7083 41.2683C89.8375 41.2683 89.1042 40.4878 89.1042 39.561C89.1042 38.6341 89.8375 37.8537 90.7083 37.8537C91.5792 37.8537 92.3125 38.6341 92.3125 39.561C92.3125 40.4878 91.5792 41.2683 90.7083 41.2683Z" fill="white" fill-opacity="0.3"/>
<path d="M19.1042 32.9512C19.6083 32.9512 20.0208 32.5122 20.0208 31.9756C20.0208 31.439 19.6083 31 19.1042 31C18.6 31 18.1875 31.439 18.1875 31.9756C18.1875 32.5122 18.6 32.9512 19.1042 32.9512ZM14.2917 36.122C13.0083 36.122 12 37.1951 12 38.561C12 39.9268 13.0083 41 14.2917 41C15.575 41 16.5833 39.9268 16.5833 38.561C16.5833 37.1951 15.575 36.122 14.2917 36.122ZM14.2917 40.2683C13.4208 40.2683 12.6875 39.4878 12.6875 38.561C12.6875 37.6341 13.4208 36.8537 14.2917 36.8537C15.1625 36.8537 15.8958 37.6341 15.8958 38.561C15.8958 39.4878 15.1625 40.2683 14.2917 40.2683ZM16.95 35.3902L18.05 34.2195L18.4167 34.6098C19.0125 35.2439 19.7917 35.6341 20.7542 35.6341V34.6585C20.0667 34.6585 19.5167 34.3659 19.1042 33.9268L18.2333 33C18.0042 32.8049 17.775 32.7073 17.5 32.7073C17.225 32.7073 16.9958 32.8049 16.8583 33L15.575 34.3659C15.3917 34.561 15.3 34.8049 15.3 35.0488C15.3 35.3415 15.3917 35.5854 15.575 35.7317L17.0417 37.0976V39.5366H17.9583V36.5122L16.95 35.3902ZM20.7083 36.122C19.425 36.122 18.4167 37.1951 18.4167 38.561C18.4167 39.9268 19.425 41 20.7083 41C21.9917 41 23 39.9268 23 38.561C23 37.1951 21.9917 36.122 20.7083 36.122ZM20.7083 40.2683C19.8375 40.2683 19.1042 39.4878 19.1042 38.561C19.1042 37.6341 19.8375 36.8537 20.7083 36.8537C21.5792 36.8537 22.3125 37.6341 22.3125 38.561C22.3125 39.4878 21.5792 40.2683 20.7083 40.2683Z" fill="white" fill-opacity="0.3"/>
<path d="M20.1042 60.9512C20.6083 60.9512 21.0208 60.5122 21.0208 59.9756C21.0208 59.439 20.6083 59 20.1042 59C19.6 59 19.1875 59.439 19.1875 59.9756C19.1875 60.5122 19.6 60.9512 20.1042 60.9512ZM15.2917 64.122C14.0083 64.122 13 65.1951 13 66.561C13 67.9268 14.0083 69 15.2917 69C16.575 69 17.5833 67.9268 17.5833 66.561C17.5833 65.1951 16.575 64.122 15.2917 64.122ZM15.2917 68.2683C14.4208 68.2683 13.6875 67.4878 13.6875 66.561C13.6875 65.6341 14.4208 64.8537 15.2917 64.8537C16.1625 64.8537 16.8958 65.6341 16.8958 66.561C16.8958 67.4878 16.1625 68.2683 15.2917 68.2683ZM17.95 63.3902L19.05 62.2195L19.4167 62.6098C20.0125 63.2439 20.7917 63.6341 21.7542 63.6341V62.6585C21.0667 62.6585 20.5167 62.3659 20.1042 61.9268L19.2333 61C19.0042 60.8049 18.775 60.7073 18.5 60.7073C18.225 60.7073 17.9958 60.8049 17.8583 61L16.575 62.3659C16.3917 62.561 16.3 62.8049 16.3 63.0488C16.3 63.3415 16.3917 63.5854 16.575 63.7317L18.0417 65.0976V67.5366H18.9583V64.5122L17.95 63.3902ZM21.7083 64.122C20.425 64.122 19.4167 65.1951 19.4167 66.561C19.4167 67.9268 20.425 69 21.7083 69C22.9917 69 24 67.9268 24 66.561C24 65.1951 22.9917 64.122 21.7083 64.122ZM21.7083 68.2683C20.8375 68.2683 20.1042 67.4878 20.1042 66.561C20.1042 65.6341 20.8375 64.8537 21.7083 64.8537C22.5792 64.8537 23.3125 65.6341 23.3125 66.561C23.3125 67.4878 22.5792 68.2683 21.7083 68.2683Z" fill="white" fill-opacity="0.3"/>
<path d="M37.1042 77.9512C37.6083 77.9512 38.0208 77.5122 38.0208 76.9756C38.0208 76.439 37.6083 76 37.1042 76C36.6 76 36.1875 76.439 36.1875 76.9756C36.1875 77.5122 36.6 77.9512 37.1042 77.9512ZM32.2917 81.122C31.0083 81.122 30 82.1951 30 83.561C30 84.9268 31.0083 86 32.2917 86C33.575 86 34.5833 84.9268 34.5833 83.561C34.5833 82.1951 33.575 81.122 32.2917 81.122ZM32.2917 85.2683C31.4208 85.2683 30.6875 84.4878 30.6875 83.561C30.6875 82.6341 31.4208 81.8537 32.2917 81.8537C33.1625 81.8537 33.8958 82.6341 33.8958 83.561C33.8958 84.4878 33.1625 85.2683 32.2917 85.2683ZM34.95 80.3902L36.05 79.2195L36.4167 79.6098C37.0125 80.2439 37.7917 80.6341 38.7542 80.6341V79.6585C38.0667 79.6585 37.5167 79.3659 37.1042 78.9268L36.2333 78C36.0042 77.8049 35.775 77.7073 35.5 77.7073C35.225 77.7073 34.9958 77.8049 34.8583 78L33.575 79.3659C33.3917 79.561 33.3 79.8049 33.3 80.0488C33.3 80.3415 33.3917 80.5854 33.575 80.7317L35.0417 82.0976V84.5366H35.9583V81.5122L34.95 80.3902ZM38.7083 81.122C37.425 81.122 36.4167 82.1951 36.4167 83.561C36.4167 84.9268 37.425 86 38.7083 86C39.9917 86 41 84.9268 41 83.561C41 82.1951 39.9917 81.122 38.7083 81.122ZM38.7083 85.2683C37.8375 85.2683 37.1042 84.4878 37.1042 83.561C37.1042 82.6341 37.8375 81.8537 38.7083 81.8537C39.5792 81.8537 40.3125 82.6341 40.3125 83.561C40.3125 84.4878 39.5792 85.2683 38.7083 85.2683Z" fill="white" fill-opacity="0.3"/>
<path d="M104.438 -7.31707C105.675 -7.31707 106.688 -8.37073 106.688 -9.65854C106.688 -10.9463 105.675 -12 104.438 -12C103.2 -12 102.188 -10.9463 102.188 -9.65854C102.188 -8.37073 103.2 -7.31707 104.438 -7.31707ZM92.625 0.292682C89.475 0.292682 87 2.86829 87 6.14634C87 9.42439 89.475 12 92.625 12C95.775 12 98.25 9.42439 98.25 6.14634C98.25 2.86829 95.775 0.292682 92.625 0.292682ZM92.625 10.2439C90.4875 10.2439 88.6875 8.37073 88.6875 6.14634C88.6875 3.92195 90.4875 2.04878 92.625 2.04878C94.7625 2.04878 96.5625 3.92195 96.5625 6.14634C96.5625 8.37073 94.7625 10.2439 92.625 10.2439ZM99.15 -1.46342L101.85 -4.27317L102.75 -3.33659C104.212 -1.81464 106.125 -0.878049 108.488 -0.878049V-3.21951C106.8 -3.21951 105.45 -3.92195 104.438 -4.97561L102.3 -7.2C101.738 -7.66829 101.175 -7.90244 100.5 -7.90244C99.825 -7.90244 99.2625 -7.66829 98.925 -7.2L95.775 -3.92195C95.325 -3.45366 95.1 -2.86829 95.1 -2.28293C95.1 -1.58049 95.325 -0.995123 95.775 -0.643903L99.375 2.63415V8.4878H101.625V1.22927L99.15 -1.46342ZM108.375 0.292682C105.225 0.292682 102.75 2.86829 102.75 6.14634C102.75 9.42439 105.225 12 108.375 12C111.525 12 114 9.42439 114 6.14634C114 2.86829 111.525 0.292682 108.375 0.292682ZM108.375 10.2439C106.238 10.2439 104.438 8.37073 104.438 6.14634C104.438 3.92195 106.238 2.04878 108.375 2.04878C110.512 2.04878 112.312 3.92195 112.312 6.14634C112.312 8.37073 110.512 10.2439 108.375 10.2439Z" fill="white" fill-opacity="0.3"/>
<path d="M-3.5625 54.6829C-2.325 54.6829 -1.3125 53.6293 -1.3125 52.3415C-1.3125 51.0537 -2.325 50 -3.5625 50C-4.8 50 -5.8125 51.0537 -5.8125 52.3415C-5.8125 53.6293 -4.8 54.6829 -3.5625 54.6829ZM-15.375 62.2927C-18.525 62.2927 -21 64.8683 -21 68.1463C-21 71.4244 -18.525 74 -15.375 74C-12.225 74 -9.75 71.4244 -9.75 68.1463C-9.75 64.8683 -12.225 62.2927 -15.375 62.2927ZM-15.375 72.2439C-17.5125 72.2439 -19.3125 70.3707 -19.3125 68.1463C-19.3125 65.922 -17.5125 64.0488 -15.375 64.0488C-13.2375 64.0488 -11.4375 65.922 -11.4375 68.1463C-11.4375 70.3707 -13.2375 72.2439 -15.375 72.2439ZM-8.85 60.5366L-6.15 57.7268L-5.25 58.6634C-3.7875 60.1854 -1.875 61.122 0.4875 61.122V58.7805C-1.2 58.7805 -2.55 58.078 -3.5625 57.0244L-5.7 54.8C-6.2625 54.3317 -6.825 54.0976 -7.5 54.0976C-8.175 54.0976 -8.7375 54.3317 -9.075 54.8L-12.225 58.078C-12.675 58.5463 -12.9 59.1317 -12.9 59.7171C-12.9 60.4195 -12.675 61.0049 -12.225 61.3561L-8.625 64.6341V70.4878H-6.375V63.2293L-8.85 60.5366ZM0.375 62.2927C-2.775 62.2927 -5.25 64.8683 -5.25 68.1463C-5.25 71.4244 -2.775 74 0.375 74C3.525 74 6 71.4244 6 68.1463C6 64.8683 3.525 62.2927 0.375 62.2927ZM0.375 72.2439C-1.7625 72.2439 -3.5625 70.3707 -3.5625 68.1463C-3.5625 65.922 -1.7625 64.0488 0.375 64.0488C2.5125 64.0488 4.3125 65.922 4.3125 68.1463C4.3125 70.3707 2.5125 72.2439 0.375 72.2439Z" fill="white" fill-opacity="0.3"/>
</g>
</svg>
